<svg width="33" height="32" viewBox="0 0 33 32" fill="none" xmlns="http://www.w3.org/2000/svg">
<path d="M23.7783 8.0002C23.5921 8.00459 23.4152 8.08247 23.2863 8.21683L16.5 15.0032L9.71363 8.21683C9.64791 8.14916 9.56929 8.09536 9.48241 8.05862C9.39553 8.02189 9.30217 8.00295 9.20784 8.00295C9.06754 8.00298 8.93044 8.04488 8.81408 8.12327C8.69772 8.20166 8.6074 8.31298 8.55466 8.44299C8.50193 8.57301 8.48918 8.7158 8.51806 8.85309C8.54693 8.99039 8.61611 9.11595 8.71674 9.21371L15.5031 16L8.71674 22.7864C8.64909 22.8513 8.59507 22.9291 8.55786 23.0152C8.52065 23.1013 8.50099 23.194 8.50004 23.2878C8.49908 23.3816 8.51685 23.4746 8.55231 23.5614C8.58776 23.6483 8.64018 23.7272 8.7065 23.7935C8.77283 23.8598 8.85172 23.9122 8.93855 23.9477C9.02539 23.9831 9.11843 24.0009 9.21222 24C9.30601 23.999 9.39866 23.9794 9.48476 23.9421C9.57086 23.9049 9.64867 23.8509 9.71363 23.7833L16.5 16.9969L23.2863 23.7833C23.3512 23.8509 23.4291 23.9049 23.5151 23.9421C23.6012 23.9794 23.6939 23.999 23.7877 24C23.8815 24.0009 23.9745 23.9831 24.0614 23.9477C24.1482 23.9122 24.2271 23.8598 24.2934 23.7935C24.3597 23.7272 24.4121 23.6483 24.4476 23.5614C24.4831 23.4746 24.5008 23.3816 24.4999 23.2878C24.4989 23.194 24.4793 23.1013 24.442 23.0152C24.4048 22.9291 24.3508 22.8513 24.2832 22.7864L17.4968 16L24.2832 9.21371C24.3857 9.11532 24.4561 8.98824 24.4851 8.84914C24.5142 8.71005 24.5005 8.56542 24.4459 8.43423C24.3913 8.30303 24.2984 8.19139 24.1792 8.11394C24.0601 8.03649 23.9204 7.99684 23.7783 8.0002Z" fill="white"/>
</svg>
